<mxfile host="Electron" modified="2023-01-05T11:58:04.593Z" agent="5.0 (Windows NT 10.0; Win64; x64) AppleWebKit/537.36 (KHTML, like Gecko) draw.io/18.0.1 Chrome/100.0.4896.143 Electron/18.2.0 Safari/537.36" etag="hW65PBT5UIJ7K2x_ekK2" compressed="false" version="18.0.1" type="device">
  <diagram id="3w6g5_Ta-V8lRmugiTsT" name="第 1 页">
    <mxGraphModel dx="717" dy="770" grid="0" gridSize="10" guides="1" tooltips="1" connect="1" arrows="1" fold="1" page="0" pageScale="1" pageWidth="827" pageHeight="1169" math="0" shadow="0">
      <root>
        <mxCell id="0" />
        <mxCell id="1" parent="0" />
        <mxCell id="qMbZHSbTQDT-AVuzsdPi-1" value="promise的链式调用" style="text;html=1;strokeColor=none;fillColor=none;align=center;verticalAlign=middle;whiteSpace=wrap;rounded=0;fontSize=19;" vertex="1" parent="1">
          <mxGeometry x="687" y="200" width="202" height="43" as="geometry" />
        </mxCell>
        <mxCell id="qMbZHSbTQDT-AVuzsdPi-2" value="第一个Promise对象p1&lt;br&gt;" style="rounded=0;whiteSpace=wrap;html=1;fontSize=17;verticalAlign=top;align=center;fillColor=#dae8fc;strokeColor=#6c8ebf;" vertex="1" parent="1">
          <mxGeometry x="414" y="268" width="349" height="205" as="geometry" />
        </mxCell>
        <mxCell id="qMbZHSbTQDT-AVuzsdPi-7" value="ajax()" style="rounded=0;whiteSpace=wrap;html=1;fontSize=17;verticalAlign=top;fillColor=#f8cecc;strokeColor=#b85450;" vertex="1" parent="1">
          <mxGeometry x="433" y="324" width="299" height="129" as="geometry" />
        </mxCell>
        <mxCell id="qMbZHSbTQDT-AVuzsdPi-5" value="success()" style="rounded=0;whiteSpace=wrap;html=1;fontSize=17;" vertex="1" parent="1">
          <mxGeometry x="453" y="367" width="120" height="60" as="geometry" />
        </mxCell>
        <mxCell id="qMbZHSbTQDT-AVuzsdPi-6" value="error()" style="rounded=0;whiteSpace=wrap;html=1;fontSize=17;" vertex="1" parent="1">
          <mxGeometry x="587" y="370" width="120" height="60" as="geometry" />
        </mxCell>
        <mxCell id="qMbZHSbTQDT-AVuzsdPi-8" value="第二个Promise对象p2" style="rounded=0;whiteSpace=wrap;html=1;fontSize=17;verticalAlign=top;align=center;fillColor=#dae8fc;strokeColor=#6c8ebf;" vertex="1" parent="1">
          <mxGeometry x="592" y="505" width="349" height="205" as="geometry" />
        </mxCell>
        <mxCell id="qMbZHSbTQDT-AVuzsdPi-9" value="ajax()" style="rounded=0;whiteSpace=wrap;html=1;fontSize=17;verticalAlign=top;fillColor=#f8cecc;strokeColor=#b85450;" vertex="1" parent="1">
          <mxGeometry x="611" y="561" width="299" height="129" as="geometry" />
        </mxCell>
        <mxCell id="qMbZHSbTQDT-AVuzsdPi-10" value="success()" style="rounded=0;whiteSpace=wrap;html=1;fontSize=17;" vertex="1" parent="1">
          <mxGeometry x="631" y="604" width="120" height="60" as="geometry" />
        </mxCell>
        <mxCell id="qMbZHSbTQDT-AVuzsdPi-11" value="error()" style="rounded=0;whiteSpace=wrap;html=1;fontSize=17;" vertex="1" parent="1">
          <mxGeometry x="765" y="607" width="120" height="60" as="geometry" />
        </mxCell>
        <mxCell id="qMbZHSbTQDT-AVuzsdPi-13" value="第三个Promise对象p3" style="rounded=0;whiteSpace=wrap;html=1;fontSize=17;verticalAlign=top;align=center;fillColor=#dae8fc;strokeColor=#6c8ebf;" vertex="1" parent="1">
          <mxGeometry x="765" y="745" width="349" height="205" as="geometry" />
        </mxCell>
        <mxCell id="qMbZHSbTQDT-AVuzsdPi-14" value="ajax()" style="rounded=0;whiteSpace=wrap;html=1;fontSize=17;verticalAlign=top;fillColor=#f8cecc;strokeColor=#b85450;" vertex="1" parent="1">
          <mxGeometry x="784" y="801" width="299" height="129" as="geometry" />
        </mxCell>
        <mxCell id="qMbZHSbTQDT-AVuzsdPi-15" value="success()" style="rounded=0;whiteSpace=wrap;html=1;fontSize=17;" vertex="1" parent="1">
          <mxGeometry x="804" y="844" width="120" height="60" as="geometry" />
        </mxCell>
        <mxCell id="qMbZHSbTQDT-AVuzsdPi-24" style="edgeStyle=orthogonalEdgeStyle;rounded=0;orthogonalLoop=1;jettySize=auto;html=1;fontSize=17;strokeColor=#FF0000;dashed=1;exitX=0.625;exitY=1.017;exitDx=0;exitDy=0;exitPerimeter=0;" edge="1" parent="1" source="qMbZHSbTQDT-AVuzsdPi-16" target="qMbZHSbTQDT-AVuzsdPi-21">
          <mxGeometry relative="1" as="geometry">
            <mxPoint x="1054" y="881" as="sourcePoint" />
            <Array as="points">
              <mxPoint x="1013" y="986" />
              <mxPoint x="1013" y="986" />
            </Array>
          </mxGeometry>
        </mxCell>
        <mxCell id="qMbZHSbTQDT-AVuzsdPi-16" value="error()" style="rounded=0;whiteSpace=wrap;html=1;fontSize=17;" vertex="1" parent="1">
          <mxGeometry x="938" y="847" width="120" height="60" as="geometry" />
        </mxCell>
        <mxCell id="qMbZHSbTQDT-AVuzsdPi-17" style="edgeStyle=orthogonalEdgeStyle;rounded=0;orthogonalLoop=1;jettySize=auto;html=1;exitX=0.5;exitY=1;exitDx=0;exitDy=0;entryX=0.25;entryY=0;entryDx=0;entryDy=0;fontSize=17;" edge="1" parent="1" source="qMbZHSbTQDT-AVuzsdPi-5" target="qMbZHSbTQDT-AVuzsdPi-10">
          <mxGeometry relative="1" as="geometry" />
        </mxCell>
        <mxCell id="qMbZHSbTQDT-AVuzsdPi-18" style="edgeStyle=orthogonalEdgeStyle;rounded=0;orthogonalLoop=1;jettySize=auto;html=1;exitX=0.5;exitY=1;exitDx=0;exitDy=0;entryX=0.25;entryY=0;entryDx=0;entryDy=0;fontSize=17;" edge="1" parent="1" source="qMbZHSbTQDT-AVuzsdPi-10" target="qMbZHSbTQDT-AVuzsdPi-15">
          <mxGeometry relative="1" as="geometry" />
        </mxCell>
        <mxCell id="qMbZHSbTQDT-AVuzsdPi-21" value="catch()&lt;br&gt;在链式调用中如果出现异常，会被catch()捕获" style="rounded=0;whiteSpace=wrap;html=1;fontSize=17;align=left;fillColor=#d5e8d4;strokeColor=#82b366;" vertex="1" parent="1">
          <mxGeometry x="737" y="993" width="380" height="69" as="geometry" />
        </mxCell>
        <mxCell id="qMbZHSbTQDT-AVuzsdPi-22" style="edgeStyle=orthogonalEdgeStyle;rounded=0;orthogonalLoop=1;jettySize=auto;html=1;exitX=1;exitY=0.5;exitDx=0;exitDy=0;fontSize=17;strokeColor=#FF0000;dashed=1;" edge="1" parent="1" source="qMbZHSbTQDT-AVuzsdPi-6" target="qMbZHSbTQDT-AVuzsdPi-21">
          <mxGeometry relative="1" as="geometry">
            <Array as="points">
              <mxPoint x="1047" y="400" />
            </Array>
          </mxGeometry>
        </mxCell>
        <mxCell id="qMbZHSbTQDT-AVuzsdPi-23" style="edgeStyle=orthogonalEdgeStyle;rounded=0;orthogonalLoop=1;jettySize=auto;html=1;exitX=1;exitY=0.5;exitDx=0;exitDy=0;fontSize=17;strokeColor=#FF0000;dashed=1;" edge="1" parent="1" source="qMbZHSbTQDT-AVuzsdPi-11" target="qMbZHSbTQDT-AVuzsdPi-21">
          <mxGeometry relative="1" as="geometry">
            <Array as="points">
              <mxPoint x="980" y="637" />
            </Array>
          </mxGeometry>
        </mxCell>
      </root>
    </mxGraphModel>
  </diagram>
</mxfile>
